<svg width="27" height="32" viewBox="0 0 27 32" fill="none" xmlns="http://www.w3.org/2000/svg">
<g style="mix-blend-mode:multiply" opacity="0.7">
<path fill-rule="evenodd" clip-rule="evenodd" d="M20.692 2.44121L24.8663 6.28394L26.2129 7.50458L25.001 8.86084L18.1335 16.4559L25.001 24.0509L26.2129 25.4072L24.8663 26.5826L20.692 30.4706L19.3455 31.6912L18.1335 30.3349L11.8496 23.3728L8.48317 27.1251L7.27129 28.4362L5.92473 27.2155L1.75037 23.3728L0.403809 22.1522L1.61575 20.7959L5.56562 16.4559L1.61575 12.0707L0.403809 10.7596L1.75037 9.53897L5.92473 5.65102L7.27129 4.4304L8.48317 5.78665L11.8496 9.53897L18.1335 2.57684L19.3455 1.22058L20.692 2.44121ZM11.8496 12.2063L7.13661 7.00728L2.96231 10.85L8.03432 16.4559L2.96231 22.0165L7.13661 25.9045L11.8496 20.7055L19.4801 29.1143L23.6993 25.2716L15.7098 16.4559L23.6993 7.6402L19.4801 3.79746L11.8496 12.2063Z" fill="black"/>
<path opacity="0.3" d="M23.6545 7.64022L19.4802 3.79749L11.8497 12.2063L7.13671 7.0073L2.9624 10.85L7.98954 16.4559L2.9624 22.0166L7.13671 25.9045L11.8497 20.7055L19.4802 29.1143L23.6545 25.2716L15.6649 16.4559L23.6545 7.64022Z" fill="black"/>
<g style="mix-blend-mode:screen" opacity="0.3">
<path d="M23.6545 7.64022L19.4802 3.79749L11.8497 12.2063L7.13671 7.0073L2.9624 10.85L7.98954 16.4559L2.9624 22.0166L7.13671 25.9045L11.8497 20.7055L19.4802 29.1143L23.6545 25.2716L15.6649 16.4559L23.6545 7.64022Z" fill="black"/>
</g>
</g>
<path fill-rule="evenodd" clip-rule="evenodd" d="M20.2882 1.22064L24.4625 5.06337L25.8091 6.284L24.5971 7.59506L17.6848 15.2353L24.5971 22.8304L25.8091 24.1414L24.4625 25.362L20.2882 29.2048L18.9416 30.4254L17.7297 29.1143L11.4458 22.1522L8.03444 25.8593L6.86743 27.2156L5.52087 25.995L1.34656 22.1522L0 20.9316L1.21188 19.5753L5.16182 15.2353L1.21188 10.8501L0 9.49381L1.34656 8.27319L5.52087 4.43045L6.86743 3.20981L8.03444 4.56607L11.4458 8.27319L17.7297 1.31105L18.9416 0L20.2882 1.22064ZM11.4458 10.9857L6.7328 5.78671L2.55844 9.62944L7.63051 15.2353L2.55844 20.796L6.7328 24.6387L11.4458 19.4397L19.0763 27.8937L23.2955 24.051L15.3059 15.2353L23.2955 6.37442L19.0763 2.53169L11.4458 10.9857Z" fill="url(#paint0_linear_196_43)"/>
<path opacity="0.3" d="M23.2505 6.37435L19.0762 2.53162L11.4457 10.9856L6.73271 5.78664L2.55835 9.62937L7.58549 15.2352L2.55835 20.7959L6.73271 24.6386L11.4457 19.4396L19.0762 27.8937L23.2505 24.0509L15.2609 15.2352L23.2505 6.37435Z" fill="#034371"/>
<path style="mix-blend-mode:screen" opacity="0.3" d="M23.2505 6.37435L19.0762 2.53162L11.4457 10.9856L6.73271 5.78664L2.55835 9.62937L7.58549 15.2352L2.55835 20.7959L6.73271 24.6386L11.4457 19.4396L19.0762 27.8937L23.2505 24.0509L15.2609 15.2352L23.2505 6.37435Z" fill="url(#paint1_radial_196_43)"/>
<defs>
<linearGradient id="paint0_linear_196_43" x1="-4.8171" y1="30.4399" x2="-4.8171" y2="-0.0126586" gradientUnits="userSpaceOnUse">
<stop stop-color="#6EAEBD"/>
<stop offset="1" stop-color="#7ECCA3"/>
</linearGradient>
<radialGradient id="paint1_radial_196_43" cx="0" cy="0" r="1" gradientUnits="userSpaceOnUse" gradientTransform="translate(12.0561 40.1732) scale(12.5311 12.6213)">
<stop stop-color="#24B7F1"/>
<stop offset="1"/>
</radialGradient>
</defs>
</svg>
