<svg width="36" height="49" viewBox="0 0 36 49" fill="none" xmlns="http://www.w3.org/2000/svg">
<path d="M29.1728 28.8939H6.38599V3.28054C6.38599 2.19877 7.25838 1.2915 8.37504 1.2915H27.1838C28.3004 1.2915 29.1728 2.19877 29.1728 3.28054V28.8939Z" fill="url(#paint0_linear_196_4524)"/>
<path fill-rule="evenodd" clip-rule="evenodd" d="M30.4987 3.28016V30.1847H5.05981V3.28016C5.05981 1.46558 6.56033 0 8.3749 0H27.1836C28.9982 0 30.4987 1.46558 30.4987 3.28016ZM8.3749 1.29112C7.25824 1.29112 6.38584 2.19839 6.38584 3.28016V28.8936H29.1727V3.28016C29.1727 2.19839 28.3003 1.29112 27.1836 1.29112H8.3749Z" fill="#3A2000"/>
<path d="M13.2604 25.9627V1.2915H8.37504C7.25838 1.2915 6.38599 2.19877 6.38599 3.28054V25.9627H13.2604Z" fill="url(#paint1_linear_196_4524)"/>
<path d="M27.1837 1.2915H22.2983V25.9627H29.1728V3.28054C29.1728 2.19877 28.3004 1.2915 27.1837 1.2915Z" fill="url(#paint2_linear_196_4524)"/>
<g opacity="0.3">
<path d="M27.1838 1.2915H8.37504C7.25838 1.2915 6.38599 2.19877 6.38599 3.28054V4.11804C6.38599 3.03628 7.25838 2.12901 8.37504 2.12901H27.1838C28.3004 2.12901 29.1728 3.03628 29.1728 4.11804V3.28054C29.1728 2.19877 28.3004 1.2915 27.1838 1.2915Z" fill="#F2F2F2"/>
</g>
<path d="M34.2674 30.499C34.2674 39.6068 26.8695 46.9698 17.7967 46.9698C8.6889 46.9698 1.29102 39.6068 1.29102 30.499C1.29102 21.4262 8.6889 14.0283 17.7967 14.0283C26.8695 14.0283 34.2674 21.4262 34.2674 30.499Z" fill="url(#paint3_linear_196_4524)"/>
<path opacity="0.3" d="M17.7967 46.4113C8.79358 46.4113 1.4655 39.1879 1.32591 30.2197C1.32591 30.3128 1.31428 30.4058 1.29102 30.4989C1.29102 39.6066 8.6889 46.9696 17.7967 46.9696C26.8695 46.9696 34.2674 39.6066 34.2674 30.4989C34.2674 30.4058 34.2558 30.3128 34.2325 30.2197C34.0929 39.1879 26.7997 46.4113 17.7967 46.4113Z" fill="#1A1A1A"/>
<g opacity="0.5">
<path d="M17.7967 14.5518C26.7997 14.5518 34.1278 21.7752 34.2325 30.7782C34.2558 30.6852 34.2674 30.5921 34.2674 30.499C34.2674 21.4262 26.8695 14.0283 17.7967 14.0283C8.6889 14.0283 1.29102 21.4262 1.29102 30.499C1.31428 30.5921 1.32591 30.6852 1.32591 30.7782C1.4655 21.7752 8.75869 14.5518 17.7967 14.5518Z" fill="#F2F2F2"/>
</g>
<path fill-rule="evenodd" clip-rule="evenodd" d="M35.5587 30.4989C35.5587 40.3395 27.6024 48.2957 17.7968 48.2957C7.9562 48.2957 0 40.3395 0 30.4989C0 20.6932 7.9562 12.7021 17.7968 12.7021C27.6024 12.7021 35.5587 20.6932 35.5587 30.4989ZM1.29113 30.4989C1.29113 39.6067 8.68901 46.9697 17.7968 46.9697C26.8696 46.9697 34.2675 39.6067 34.2675 30.4989C34.2675 21.4261 26.8696 14.0282 17.7968 14.0282C8.68901 14.0282 1.29113 21.4261 1.29113 30.4989Z" fill="#3A2000"/>
<path d="M31.2663 30.4987C31.2663 37.9664 25.2294 44.0034 17.7966 44.0034C10.3289 44.0034 4.29199 37.9664 4.29199 30.4987C4.29199 23.066 10.3289 16.9941 17.7966 16.9941C25.2294 16.9941 31.2663 23.066 31.2663 30.4987Z" fill="#3A2000"/>
<path opacity="0.6" fill-rule="evenodd" clip-rule="evenodd" d="M31.2663 30.4987C31.2663 37.9664 25.2294 44.0034 17.7966 44.0034C10.3289 44.0034 4.29199 37.9664 4.29199 30.4987C4.29199 23.066 10.3289 16.9941 17.7966 16.9941C25.2294 16.9941 31.2663 23.066 31.2663 30.4987ZM4.81543 30.4987C4.81543 37.6523 10.643 43.4799 17.7966 43.4799C24.9502 43.4799 30.7429 37.6523 30.7429 30.4987C30.7429 23.3451 24.9502 17.5525 17.7966 17.5525C10.643 17.5525 4.81543 23.3451 4.81543 30.4987Z" fill="#1A1A1A"/>
<path d="M29.3472 30.4987C29.3472 36.8846 24.1827 42.0841 17.7968 42.0841C11.376 42.0841 6.21143 36.8846 6.21143 30.4987C6.21143 24.1128 11.376 18.9482 17.7968 18.9482C24.1827 18.9482 29.3472 24.1128 29.3472 30.4987Z" fill="url(#paint4_linear_196_4524)"/>
<path opacity="0.5" fill-rule="evenodd" clip-rule="evenodd" d="M29.3472 30.4987C29.3472 36.8846 24.1827 42.0841 17.7968 42.0841C11.376 42.0841 6.21143 36.8846 6.21143 30.4987C6.21143 24.1128 11.376 18.9482 17.7968 18.9482C24.1827 18.9482 29.3472 24.1128 29.3472 30.4987ZM6.59528 30.4987C6.59528 36.6752 11.6203 41.7002 17.7968 41.7002C23.9384 41.7002 28.9634 36.6752 28.9634 30.4987C28.9634 24.3571 23.9384 19.3321 17.7968 19.3321C11.6203 19.3321 6.59528 24.3571 6.59528 30.4987Z" fill="#F2F2F2"/>
<path d="M16.9242 24.7058C17.2034 24.4267 17.5058 24.2871 17.8315 24.2871C18.1572 24.2871 18.4131 24.3104 18.5992 24.3569C18.7853 24.4034 18.9249 24.4616 19.018 24.5314C19.111 24.6012 19.1924 24.7175 19.2622 24.8803C19.3088 25.0664 19.332 25.3572 19.332 25.7527V34.7558C19.332 35.0117 19.3204 35.1978 19.2971 35.3141C19.2971 35.4537 19.2506 35.6049 19.1575 35.7678C18.9947 36.0469 18.576 36.1865 17.9013 36.1865C17.2267 36.1865 16.8079 36.0469 16.6451 35.7678C16.552 35.6049 16.5055 35.4537 16.5055 35.3141C16.4822 35.1745 16.4706 34.9768 16.4706 34.7209V28.9631L16.2612 29.1376C15.8192 29.4866 15.4353 29.661 15.1097 29.661C14.8072 29.661 14.4815 29.4633 14.1326 29.0678C13.8069 28.6956 13.644 28.3699 13.644 28.0907C13.644 27.7883 13.8301 27.4626 14.2024 27.1136L16.8544 24.7407L16.9242 24.7058Z" fill="#3A2000"/>
<g opacity="0.5">
<path fill-rule="evenodd" clip-rule="evenodd" d="M18.6691 24.113C18.8785 24.1595 19.053 24.2293 19.1926 24.3224C19.3321 24.4154 19.4368 24.5783 19.5066 24.8109C19.5764 25.0203 19.6113 25.3343 19.6113 25.7531V34.7562C19.6113 35.0121 19.5997 35.2098 19.5764 35.3494C19.5532 35.5122 19.495 35.6867 19.4019 35.8728C19.1926 36.2567 18.704 36.4661 17.9014 36.4661C17.0988 36.4661 16.6452 36.2567 16.4009 35.9077C16.3079 35.6983 16.2497 35.5122 16.2264 35.3494C16.2032 35.2098 16.1915 35.0005 16.1915 34.7213V29.5218C15.7961 29.7777 15.4355 29.9057 15.1098 29.9057C14.7376 29.9057 14.3537 29.6847 13.9582 29.2426C13.5744 28.8239 13.365 28.4401 13.365 28.0911C13.365 27.7073 13.5744 27.3234 14.028 26.9395L16.6801 24.5317H16.715V24.4968H16.7499C17.0756 24.1712 17.4362 24.0083 17.8316 24.0083C18.1806 24.0083 18.4598 24.0432 18.6691 24.113ZM16.9243 24.7062L16.8546 24.7411L14.2025 27.114C13.8303 27.463 13.6442 27.7887 13.6442 28.0911C13.6442 28.3703 13.807 28.6959 14.1327 29.0682C14.4817 29.4637 14.8073 29.6614 15.1098 29.6614C15.4355 29.6614 15.8193 29.4869 16.2613 29.138L16.4707 28.9635V34.7213C16.4707 34.9772 16.4823 35.1749 16.5056 35.3145C16.5056 35.4541 16.5521 35.6053 16.6452 35.7682C16.808 36.0473 17.2268 36.1869 17.9014 36.1869C18.5761 36.1869 18.9948 36.0473 19.1577 35.7682C19.2507 35.6053 19.2972 35.4541 19.2972 35.3145C19.3205 35.1982 19.3321 35.0121 19.3321 34.7562V25.7531C19.3321 25.3576 19.3089 25.0668 19.2624 24.8807C19.1926 24.7178 19.1111 24.6015 19.0181 24.5317C18.925 24.4619 18.7854 24.4038 18.5993 24.3573C18.4132 24.3107 18.1573 24.2875 17.8316 24.2875C17.5059 24.2875 17.2035 24.427 16.9243 24.7062Z" fill="#F2F2F2"/>
</g>
<path d="M15.8076 40.0602C15.5284 40.0602 15.2842 39.8508 15.2842 39.5717V38.2805C15.2842 38.0014 15.5284 37.792 15.8076 37.792C16.0868 37.792 16.2962 38.0014 16.2962 38.2805V39.5717C16.2962 39.8508 16.0868 40.0602 15.8076 40.0602Z" fill="#3A2000"/>
<path d="M17.7966 40.0602C17.5175 40.0602 17.2732 39.8508 17.2732 39.5717V38.2805C17.2732 38.0014 17.5175 37.792 17.7966 37.792C18.0409 37.792 18.2852 38.0014 18.2852 38.2805V39.5717C18.2852 39.8508 18.0409 40.0602 17.7966 40.0602Z" fill="#3A2000"/>
<path d="M19.7508 40.0602C19.5065 40.0602 19.2622 39.8508 19.2622 39.5717V38.2805C19.2622 38.0014 19.5065 37.792 19.7508 37.792C20.0299 37.792 20.2742 38.0014 20.2742 38.2805V39.5717C20.2742 39.8508 20.0299 40.0602 19.7508 40.0602Z" fill="#3A2000"/>
<path d="M11.0269 35.3843C11.3758 36.0473 10.4685 36.6755 10.0149 36.0822C9.99164 36.059 9.98001 36.0473 9.98001 36.0473C8.93314 34.7213 8.27013 33.1161 8.02586 31.4063C7.81648 29.7313 8.09565 27.9167 8.93314 26.451C9.317 25.7182 9.87532 25.0552 10.4685 24.4969C11.0618 23.9386 11.7248 23.45 12.4576 23.1011C11.9342 23.7292 11.4805 24.3224 11.0618 24.9854C10.643 25.6136 10.2941 26.2766 10.0498 26.9745C9.52636 28.3354 9.42168 29.7661 9.63106 31.1968C9.80554 32.6276 10.2592 34.0583 10.992 35.3494C10.992 35.3494 11.0036 35.3611 11.0269 35.3843Z" fill="#3A2000"/>
<path d="M12.0737 37.1291C12.0737 37.4083 11.8294 37.6526 11.5154 37.6526C11.2362 37.6526 10.9919 37.4083 10.9919 37.1291C10.9919 36.8151 11.2362 36.5708 11.5154 36.5708C11.8294 36.5708 12.0737 36.8151 12.0737 37.1291Z" fill="#3A2000"/>
<path d="M13.33 38.1763C13.33 38.4554 13.0858 38.6997 12.8066 38.6997C12.4926 38.6997 12.2483 38.4554 12.2483 38.1763C12.2483 37.8971 12.4926 37.6528 12.8066 37.6528C13.0858 37.6528 13.33 37.8971 13.33 38.1763Z" fill="#3A2000"/>
<path d="M24.5316 35.3843C24.1826 36.0473 25.0899 36.6755 25.5435 36.0822C25.5668 36.059 25.5784 36.0473 25.5784 36.0473C26.6253 34.7213 27.2883 33.1161 27.5326 31.4063C27.7768 29.7313 27.4628 27.9167 26.6253 26.451C26.2414 25.7182 25.6831 25.0552 25.0899 24.4969C24.4967 23.9386 23.8336 23.45 23.1008 23.1011C23.6243 23.7292 24.0779 24.3224 24.4967 24.9854C24.9154 25.6136 25.2644 26.2766 25.5086 26.9745C26.0321 28.3354 26.1368 29.7661 25.9274 31.1968C25.7529 32.6276 25.2993 34.0583 24.5665 35.3494C24.5665 35.3494 24.5548 35.3611 24.5316 35.3843Z" fill="#3A2000"/>
<path d="M23.5195 37.1291C23.5195 37.4083 23.7289 37.6526 24.043 37.6526C24.3221 37.6526 24.5664 37.4083 24.5664 37.1291C24.5664 36.8151 24.3221 36.5708 24.043 36.5708C23.7289 36.5708 23.5195 36.8151 23.5195 37.1291Z" fill="#3A2000"/>
<path d="M22.2283 38.1763C22.2283 38.4554 22.4725 38.6997 22.7866 38.6997C23.0658 38.6997 23.31 38.4554 23.31 38.1763C23.31 37.8971 23.0658 37.6528 22.7866 37.6528C22.4725 37.6528 22.2283 37.8971 22.2283 38.1763Z" fill="#3A2000"/>
<defs>
<linearGradient id="paint0_linear_196_4524" x1="1.09685" y1="28.8796" x2="1.09685" y2="1.30791" gradientUnits="userSpaceOnUse">
<stop offset="0.006" stop-color="#5B8289"/>
<stop offset="1" stop-color="#FFF57F"/>
</linearGradient>
<linearGradient id="paint1_linear_196_4524" x1="-34.3606" y1="25.9466" x2="-34.3606" y2="1.30791" gradientUnits="userSpaceOnUse">
<stop stop-color="#AD2E3C"/>
<stop offset="1" stop-color="#CE4343"/>
</linearGradient>
<linearGradient id="paint2_linear_196_4524" x1="-18.4479" y1="25.9466" x2="-18.4479" y2="1.30791" gradientUnits="userSpaceOnUse">
<stop stop-color="#AD2E3C"/>
<stop offset="1" stop-color="#CE4343"/>
</linearGradient>
<linearGradient id="paint3_linear_196_4524" x1="1.30672" y1="46.9869" x2="1.30672" y2="14.0391" gradientUnits="userSpaceOnUse">
<stop stop-color="#BE6D00"/>
<stop offset="0.545" stop-color="#FFF57F"/>
<stop offset="0.994" stop-color="#DE9700"/>
</linearGradient>
<linearGradient id="paint4_linear_196_4524" x1="6.21212" y1="42.0813" x2="6.21212" y2="18.9441" gradientUnits="userSpaceOnUse">
<stop stop-color="#BE6D00"/>
<stop offset="0.545" stop-color="#FFF57F"/>
<stop offset="0.994" stop-color="#DE9700"/>
</linearGradient>
</defs>
</svg>
