<svg width="35" height="23" viewBox="0 0 35 23" fill="none" xmlns="http://www.w3.org/2000/svg">
<path d="M22.9914 5.85407H2.92704C1.32189 5.85407 0 4.53219 0 2.92704C0 1.32189 1.32189 0 2.92704 0H22.9914C24.5966 0 25.9184 1.32189 25.9184 2.92704C25.9184 4.53219 24.5966 5.85407 22.9914 5.85407Z" fill="#FF4596"/>
<path d="M34.9827 2.92704C34.9827 4.53219 33.7081 5.85407 32.0557 5.85407C30.4505 5.85407 29.1287 4.53219 29.1287 2.92704C29.1287 1.32189 30.4505 0 32.0557 0C33.7081 0 34.9827 1.32189 34.9827 2.92704Z" fill="#FF4596"/>
<path d="M22.9914 14.3993H2.92704C1.32189 14.3993 0 13.0774 0 11.4723C0 9.81993 1.32189 8.49805 2.92704 8.49805H22.9914C24.5966 8.49805 25.9184 9.81993 25.9184 11.4723C25.9184 13.0774 24.5966 14.3993 22.9914 14.3993Z" fill="#FF4596"/>
<path d="M34.9827 11.4723C34.9827 13.0774 33.7081 14.3993 32.0557 14.3993C30.4505 14.3993 29.1287 13.0774 29.1287 11.4723C29.1287 9.81993 30.4505 8.49805 32.0557 8.49805C33.7081 8.49805 34.9827 9.81993 34.9827 11.4723Z" fill="#FF4596"/>
<path d="M22.9914 22.897H2.92704C1.32189 22.897 0 21.5752 0 19.97C0 18.3649 1.32189 17.043 2.92704 17.043H22.9914C24.5966 17.043 25.9184 18.3649 25.9184 19.97C25.9184 21.5752 24.5966 22.897 22.9914 22.897Z" fill="#FF4596"/>
<path d="M34.9827 19.97C34.9827 21.5752 33.7081 22.897 32.0557 22.897C30.4505 22.897 29.1287 21.5752 29.1287 19.97C29.1287 18.3649 30.4505 17.043 32.0557 17.043C33.7081 17.043 34.9827 18.3649 34.9827 19.97Z" fill="#FF4596"/>
</svg>
