<svg width="34" height="46" viewBox="0 0 34 46" fill="none" xmlns="http://www.w3.org/2000/svg">
<path d="M27.4972 27.2013H6.04468V3.08779C6.04468 2.06937 6.866 1.24805 7.88442 1.24805H25.6246C26.6431 1.24805 27.4972 2.06937 27.4972 3.08779V27.2013Z" fill="url(#paint0_linear_196_4576)"/>
<path fill-rule="evenodd" clip-rule="evenodd" d="M28.7457 3.08812V28.4501H4.79639V3.08812C4.79639 1.3798 6.17619 0 7.88451 0H25.6247C27.333 0 28.7457 1.3798 28.7457 3.08812ZM7.88451 1.24838C6.86609 1.24838 6.04477 2.0697 6.04477 3.08812V27.2017H27.4973V3.08812C27.4973 2.0697 26.6432 1.24838 25.6247 1.24838H7.88451Z" fill="#1A1A1A"/>
<path d="M12.5166 24.4418V1.24805H7.88442C6.866 1.24805 6.04468 2.06937 6.04468 3.08779V24.4418H12.5166Z" fill="url(#paint1_linear_196_4576)"/>
<path d="M25.6247 1.24805H21.0254V24.4418H27.4973V3.08779C27.4973 2.06937 26.6431 1.24805 25.6247 1.24805Z" fill="url(#paint2_linear_196_4576)"/>
<g opacity="0.3">
<path d="M25.6246 1.24805H7.88442C6.866 1.24805 6.04468 2.06937 6.04468 3.08779V3.87623C6.04468 2.85781 6.866 2.03651 7.88442 2.03651H25.6246C26.6431 2.03651 27.4972 2.85781 27.4972 3.87623V3.08779C27.4972 2.06937 26.6431 1.24805 25.6246 1.24805Z" fill="#F2F2F2"/>
</g>
<path d="M32.2608 28.7455C32.2608 37.32 25.329 44.2518 16.7546 44.2518C8.21298 44.2518 1.24829 37.32 1.24829 28.7455C1.24829 20.1711 8.21298 13.2393 16.7546 13.2393C25.329 13.2393 32.2608 20.1711 32.2608 28.7455Z" fill="url(#paint3_linear_196_4576)"/>
<path opacity="0.3" d="M16.7546 43.7269C8.27868 43.7269 1.41255 36.9264 1.24829 28.4834C1.24829 28.571 1.24829 28.6586 1.24829 28.7462C1.24829 37.3207 8.21298 44.2525 16.7546 44.2525C25.329 44.2525 32.2608 37.3207 32.2608 28.7462C32.2608 28.6586 32.2608 28.571 32.2608 28.4834C32.1294 36.9264 25.2304 43.7269 16.7546 43.7269Z" fill="#1A1A1A"/>
<g opacity="0.5">
<path d="M16.7546 13.6992C25.2633 13.6992 32.1294 20.5325 32.2608 28.9755C32.2608 28.9098 32.2608 28.8331 32.2608 28.7455C32.2608 20.1711 25.329 13.2393 16.7546 13.2393C8.21298 13.2393 1.24829 20.1711 1.24829 28.7455C1.24829 28.8331 1.24829 28.9098 1.24829 28.9755C1.3797 20.5325 8.27868 13.6992 16.7546 13.6992Z" fill="#F2F2F2"/>
</g>
<path fill-rule="evenodd" clip-rule="evenodd" d="M33.5093 28.7459C33.5093 37.9774 26.019 45.5005 16.7547 45.5005C7.52317 45.5005 0 37.9774 0 28.7459C0 19.5144 7.52317 11.9912 16.7547 11.9912C26.019 11.9912 33.5093 19.5144 33.5093 28.7459ZM1.24838 28.7459C1.24838 37.3203 8.21307 44.2521 16.7547 44.2521C25.3291 44.2521 32.2609 37.3203 32.2609 28.7459C32.2609 20.1714 25.3291 13.2396 16.7547 13.2396C8.21307 13.2396 1.24838 20.1714 1.24838 28.7459Z" fill="#1A1A1A"/>
<path d="M29.4684 28.7456C29.4684 35.776 23.785 41.4594 16.7546 41.4594C9.75707 41.4594 4.04077 35.776 4.04077 28.7456C4.04077 21.7152 9.75707 16.0317 16.7546 16.0317C23.785 16.0317 29.4684 21.7152 29.4684 28.7456Z" fill="url(#paint4_radial_196_4576)"/>
<path opacity="0.6" fill-rule="evenodd" clip-rule="evenodd" d="M29.4684 28.7456C29.4684 35.776 23.785 41.4594 16.7546 41.4594C9.75707 41.4594 4.04077 35.776 4.04077 28.7456C4.04077 21.7152 9.75707 16.0317 16.7546 16.0317C23.785 16.0317 29.4684 21.7152 29.4684 28.7456ZM4.5664 28.7456C4.5664 35.4803 10.0199 40.9666 16.7546 40.9666C23.4893 40.9666 28.9756 35.4803 28.9756 28.7456C28.9756 22.0109 23.4893 16.5245 16.7546 16.5245C10.0199 16.5245 4.5664 22.0109 4.5664 28.7456Z" fill="#1A1A1A"/>
<path d="M27.6614 28.7458C27.6614 34.7578 22.7665 39.6199 16.7545 39.6199C10.7425 39.6199 5.88037 34.7578 5.88037 28.7458C5.88037 22.7339 10.7425 17.8389 16.7545 17.8389C22.7665 17.8389 27.6614 22.7339 27.6614 28.7458Z" fill="url(#paint5_linear_196_4576)"/>
<path opacity="0.5" fill-rule="evenodd" clip-rule="evenodd" d="M27.6614 28.7458C27.6614 34.7578 22.7665 39.6199 16.7545 39.6199C10.7425 39.6199 5.88037 34.7578 5.88037 28.7458C5.88037 22.7339 10.7425 17.8389 16.7545 17.8389C22.7665 17.8389 27.6614 22.7339 27.6614 28.7458ZM6.24176 28.7458C6.24176 34.5278 10.9725 39.2586 16.7545 39.2586C22.5693 39.2586 27.2672 34.5278 27.2672 28.7458C27.2672 22.931 22.5693 18.2331 16.7545 18.2331C10.9725 18.2331 6.24176 22.931 6.24176 28.7458Z" fill="#F2F2F2"/>
<path d="M14.8821 37.7474C14.6521 37.7474 14.4221 37.5174 14.4221 37.2874V36.0719C14.4221 35.8091 14.6521 35.5791 14.8821 35.5791C15.1449 35.5791 15.3748 35.8091 15.3748 36.0719V37.2874C15.3748 37.5174 15.1449 37.7474 14.8821 37.7474Z" fill="url(#paint6_radial_196_4576)"/>
<path d="M16.7546 37.7474C16.4918 37.7474 16.2947 37.5174 16.2947 37.2874V36.0719C16.2947 35.8091 16.4918 35.5791 16.7546 35.5791C17.0174 35.5791 17.2474 35.8091 17.2474 36.0719V37.2874C17.2474 37.5174 17.0174 37.7474 16.7546 37.7474Z" fill="url(#paint7_radial_196_4576)"/>
<path d="M18.6272 37.7474C18.3643 37.7474 18.1672 37.5174 18.1672 37.2874V36.0719C18.1672 35.8091 18.3643 35.5791 18.6272 35.5791C18.89 35.5791 19.1199 35.8091 19.1199 36.0719V37.2874C19.1199 37.5174 18.89 37.7474 18.6272 37.7474Z" fill="url(#paint8_radial_196_4576)"/>
<path d="M10.3814 33.3454C10.7428 33.9367 9.88861 34.5609 9.46153 34.0024C9.43963 33.9805 9.41773 33.9586 9.39583 33.9367C8.44311 32.6883 7.81892 31.1771 7.58895 29.6002C7.35898 28.0233 7.62179 26.315 8.4431 24.9352C8.80448 24.2125 9.33012 23.5883 9.88861 23.0626C10.4471 22.5698 11.0713 22.0771 11.7612 21.7485C11.2684 22.3399 10.8413 22.9312 10.4471 23.5554C10.0529 24.1468 9.72434 24.7709 9.49438 25.3951C9.00159 26.7092 8.90304 28.0562 9.0673 29.4031C9.26442 30.7501 9.6915 32.0641 10.3814 33.2797C10.3814 33.3016 10.3814 33.3235 10.3814 33.3454Z" fill="url(#paint9_radial_196_4576)"/>
<path d="M11.3669 34.9552C11.3669 35.2509 11.1698 35.448 10.8741 35.448C10.6113 35.448 10.3813 35.2509 10.3813 34.9552C10.3813 34.6924 10.6113 34.4624 10.8741 34.4624C11.1698 34.4624 11.3669 34.6924 11.3669 34.9552Z" fill="url(#paint10_radial_196_4576)"/>
<path d="M12.5824 35.9405C12.5824 36.2362 12.3524 36.4662 12.0567 36.4662C11.7939 36.4662 11.564 36.2362 11.564 35.9405C11.564 35.6777 11.7939 35.4478 12.0567 35.4478C12.3524 35.4478 12.5824 35.6777 12.5824 35.9405Z" fill="url(#paint11_radial_196_4576)"/>
<path d="M23.1282 33.3454C22.7668 33.9367 23.621 34.5609 24.0809 34.0024C24.1028 33.9805 24.1138 33.9586 24.1138 33.9367C25.0993 32.6883 25.7235 31.1771 25.9206 29.6002C26.1506 28.0233 25.8878 26.315 25.0993 24.9352C24.7379 24.2125 24.2123 23.5883 23.6538 23.0626C23.0625 22.5698 22.4711 22.0771 21.7812 21.7485C22.2412 22.3399 22.7011 22.9312 23.0953 23.5554C23.4896 24.1468 23.7852 24.7709 24.048 25.3951C24.508 26.7092 24.6394 28.0562 24.4423 29.4031C24.278 30.7501 23.8181 32.0641 23.161 33.2797C23.161 33.3016 23.1501 33.3235 23.1282 33.3454Z" fill="url(#paint12_radial_196_4576)"/>
<path d="M22.1426 34.9552C22.1426 35.2509 22.3726 35.448 22.6682 35.448C22.931 35.448 23.161 35.2509 23.161 34.9552C23.161 34.6924 22.931 34.4624 22.6682 34.4624C22.3726 34.4624 22.1426 34.6924 22.1426 34.9552Z" fill="url(#paint13_radial_196_4576)"/>
<path d="M20.9597 35.9405C20.9597 36.2362 21.1897 36.4662 21.4525 36.4662C21.7482 36.4662 21.9453 36.2362 21.9453 35.9405C21.9453 35.6777 21.7482 35.4478 21.4525 35.4478C21.1897 35.4478 20.9597 35.6777 20.9597 35.9405Z" fill="url(#paint14_radial_196_4576)"/>
<path d="M19.7769 31.7022C20.193 31.7022 20.4887 31.7569 20.6639 31.8664C20.8391 31.954 20.9596 32.0964 21.0253 32.2935C21.0691 32.4906 21.091 32.7534 21.091 33.082C21.091 33.3886 21.0581 33.6404 20.9924 33.8376C20.9267 34.0347 20.8172 34.1661 20.6639 34.2318C20.4449 34.3632 20.1382 34.4289 19.744 34.4289H13.7649C13.3926 34.4289 13.075 34.2865 12.8122 34.0018C12.5494 33.739 12.418 33.4214 12.418 33.0491C12.418 32.5016 12.6151 31.9978 13.0093 31.5379C13.3816 31.078 13.8416 30.6837 14.3891 30.3552C14.9147 30.0267 15.4513 29.6982 15.9989 29.3697C16.5245 29.063 16.9844 28.7017 17.3787 28.2855C17.751 27.8694 17.9371 27.4423 17.9371 27.0043C17.9371 26.8948 17.9043 26.7634 17.8386 26.6101C17.7729 26.4348 17.6962 26.2925 17.6086 26.183C17.521 26.0735 17.3896 25.9749 17.2144 25.8873C17.0173 25.7997 16.7545 25.7559 16.4259 25.7559C16.0974 25.7559 15.8237 25.8764 15.6046 26.1173C15.3637 26.3582 15.2214 26.5882 15.1775 26.8072L15.1119 27.1685V27.2671C15.1119 27.4861 15.1119 27.6504 15.1119 27.7599C15.09 27.8694 15.0352 28.0008 14.9476 28.1541C14.7943 28.395 14.4 28.5155 13.7649 28.5155C13.0641 28.5155 12.6479 28.3184 12.5165 27.9241C12.4508 27.7708 12.418 27.519 12.418 27.1685C12.418 26.0954 12.8012 25.1427 13.5678 24.3104C14.3124 23.4781 15.298 23.062 16.5245 23.062C17.751 23.062 18.7475 23.4891 19.5141 24.3433C20.2806 25.1755 20.6639 26.1392 20.6639 27.2343C20.6639 27.8037 20.5325 28.3512 20.2696 28.8769C20.0287 29.4025 19.7221 29.8186 19.3498 30.1252C18.6051 30.8042 17.9372 31.2532 17.3458 31.4722L16.9844 31.6364V31.7022H19.7769Z" fill="url(#paint15_radial_196_4576)"/>
<g opacity="0.5">
<path fill-rule="evenodd" clip-rule="evenodd" d="M19.7112 24.1463C20.4996 25.0661 20.8938 26.0845 20.8938 27.2344C20.8938 27.8476 20.7624 28.428 20.4996 28.9755C20.2368 29.5231 19.9083 29.9721 19.514 30.3225C18.9665 30.8262 18.4518 31.2095 17.97 31.4723H19.7769C20.2149 31.4723 20.5434 31.5271 20.7624 31.6366C21.0033 31.768 21.1676 31.9651 21.2552 32.2279C21.3209 32.4469 21.3538 32.7316 21.3538 33.0821C21.3538 33.4325 21.31 33.7172 21.2224 33.9362C21.1567 34.199 20.9924 34.3633 20.7953 34.4619C20.5325 34.6152 20.182 34.6918 19.744 34.6918H13.7649C13.3269 34.6699 12.9545 34.5057 12.6479 34.1991C12.3413 33.8705 12.188 33.4873 12.188 33.0492C12.188 32.436 12.3961 31.8775 12.8122 31.3738C13.2064 30.8919 13.6882 30.4758 14.2577 30.1254C14.8052 29.7968 15.3418 29.4793 15.8674 29.1726C16.3931 28.866 16.8311 28.5156 17.1815 28.1214C17.5429 27.76 17.7072 27.3986 17.7072 27.0044C17.7072 26.9716 17.6743 26.873 17.6086 26.7087C17.5429 26.5554 17.4772 26.435 17.4115 26.3474C17.3458 26.2598 17.2363 26.1831 17.083 26.1174C16.9297 26.0517 16.7107 26.0188 16.4259 26.0188C16.185 25.9969 15.966 26.0845 15.7689 26.2816C15.5718 26.4788 15.4623 26.6759 15.4404 26.873L15.3747 27.2015V27.2672C15.3747 27.5081 15.3637 27.6834 15.3418 27.7929C15.3199 27.9462 15.2651 28.1104 15.1775 28.2856C14.9804 28.6142 14.5205 28.7784 13.7649 28.7784C12.9326 28.7565 12.4289 28.5046 12.2537 28.0228C12.2099 27.8257 12.188 27.541 12.188 27.1687C12.188 26.0517 12.5822 25.0333 13.3707 24.1463C14.192 23.2592 15.2433 22.7993 16.5245 22.7993C17.8386 22.7993 18.8899 23.2592 19.7112 24.1463ZM13.5678 24.3105C12.8012 25.1428 12.418 26.0955 12.418 27.1687C12.418 27.5191 12.4508 27.771 12.5165 27.9243C12.6479 28.3185 13.064 28.5156 13.7649 28.5156C14.4 28.5156 14.7943 28.3951 14.9476 28.1542C15.0352 28.0009 15.0899 27.8695 15.1118 27.76C15.1118 27.6505 15.1118 27.4862 15.1118 27.2672V27.1687L15.1775 26.8073C15.2213 26.5883 15.3637 26.3583 15.6046 26.1174C15.8236 25.8765 16.0974 25.756 16.4259 25.756C16.7545 25.756 17.0173 25.7998 17.2144 25.8874C17.3896 25.975 17.521 26.0736 17.6086 26.1831C17.6962 26.2926 17.7729 26.435 17.8386 26.6102C17.9043 26.7635 17.9371 26.8949 17.9371 27.0044C17.9371 27.4424 17.751 27.8695 17.3786 28.2856C16.9844 28.7018 16.5245 29.0631 15.9988 29.3698C15.4513 29.6983 14.9147 30.0268 14.3891 30.3553C13.8416 30.6839 13.3816 31.0781 13.0093 31.538C12.6151 31.9979 12.418 32.5017 12.418 33.0492C12.418 33.4216 12.5494 33.7391 12.8122 34.0019C13.075 34.2867 13.3926 34.429 13.7649 34.429H19.744C20.1382 34.429 20.4449 34.3633 20.6639 34.2319C20.8172 34.1662 20.9267 34.0348 20.9924 33.8377C21.0581 33.6406 21.0909 33.3887 21.0909 33.0821C21.0909 32.7536 21.0691 32.4907 21.0253 32.2936C20.9596 32.0965 20.8391 31.9541 20.6639 31.8665C20.4887 31.757 20.193 31.7023 19.7769 31.7023H16.9844V31.6366L17.3458 31.4723C17.9371 31.2533 18.6051 30.8043 19.3498 30.1254C19.7221 29.8187 20.0287 29.4026 20.2696 28.877C20.5325 28.3514 20.6639 27.8038 20.6639 27.2344C20.6639 26.1393 20.2806 25.1756 19.514 24.3434C18.7475 23.4892 17.751 23.0621 16.5245 23.0621C15.298 23.0621 14.3124 23.4783 13.5678 24.3105Z" fill="#F2F2F2"/>
</g>
<defs>
<linearGradient id="paint0_linear_196_4576" x1="1.05836" y1="27.2036" x2="1.05836" y2="1.2464" gradientUnits="userSpaceOnUse">
<stop stop-color="#999999"/>
<stop offset="1" stop-color="white"/>
</linearGradient>
<linearGradient id="paint1_linear_196_4576" x1="-32.3225" y1="24.4424" x2="-32.3225" y2="1.2464" gradientUnits="userSpaceOnUse">
<stop stop-color="#2C3E50"/>
<stop offset="1" stop-color="#34495E"/>
</linearGradient>
<linearGradient id="paint2_linear_196_4576" x1="-17.3417" y1="24.4424" x2="-17.3417" y2="1.2464" gradientUnits="userSpaceOnUse">
<stop stop-color="#2C3E50"/>
<stop offset="1" stop-color="#34495E"/>
</linearGradient>
<linearGradient id="paint3_linear_196_4576" x1="1.25618" y1="44.2508" x2="1.25618" y2="13.2324" gradientUnits="userSpaceOnUse">
<stop stop-color="#666666"/>
<stop offset="0.564" stop-color="white"/>
<stop offset="1" stop-color="#999999"/>
</linearGradient>
<radialGradient id="paint4_radial_196_4576" cx="0" cy="0" r="1" gradientUnits="userSpaceOnUse" gradientTransform="translate(16.7654 28.7416) scale(12.7105 12.7105)">
<stop stop-color="#414141"/>
<stop offset="1" stop-color="#313131"/>
</radialGradient>
<linearGradient id="paint5_linear_196_4576" x1="5.87413" y1="39.6331" x2="5.87413" y2="17.8507" gradientUnits="userSpaceOnUse">
<stop stop-color="#666666"/>
<stop offset="0.564" stop-color="white"/>
<stop offset="1" stop-color="#999999"/>
</linearGradient>
<radialGradient id="paint6_radial_196_4576" cx="0" cy="0" r="1" gradientUnits="userSpaceOnUse" gradientTransform="translate(14.8968 36.6639) scale(0.83117 0.831167)">
<stop stop-color="#414141"/>
<stop offset="1" stop-color="#313131"/>
</radialGradient>
<radialGradient id="paint7_radial_196_4576" cx="0" cy="0" r="1" gradientUnits="userSpaceOnUse" gradientTransform="translate(16.7655 36.6639) scale(0.83117 0.831167)">
<stop stop-color="#414141"/>
<stop offset="1" stop-color="#313131"/>
</radialGradient>
<radialGradient id="paint8_radial_196_4576" cx="0" cy="0" r="1" gradientUnits="userSpaceOnUse" gradientTransform="translate(18.6344 36.6639) scale(0.831152 0.831167)">
<stop stop-color="#414141"/>
<stop offset="1" stop-color="#313131"/>
</radialGradient>
<radialGradient id="paint9_radial_196_4576" cx="0" cy="0" r="1" gradientUnits="userSpaceOnUse" gradientTransform="translate(9.63269 27.9852) scale(4.65386 4.65385)">
<stop stop-color="#414141"/>
<stop offset="1" stop-color="#313131"/>
</radialGradient>
<radialGradient id="paint10_radial_196_4576" cx="0" cy="0" r="1" gradientUnits="userSpaceOnUse" gradientTransform="translate(10.8781 34.9595) scale(0.498369)">
<stop stop-color="#414141"/>
<stop offset="1" stop-color="#313131"/>
</radialGradient>
<radialGradient id="paint11_radial_196_4576" cx="0" cy="0" r="1" gradientUnits="userSpaceOnUse" gradientTransform="translate(12.0679 35.9563) scale(0.498375 0.498365)">
<stop stop-color="#414141"/>
<stop offset="1" stop-color="#313131"/>
</radialGradient>
<radialGradient id="paint12_radial_196_4576" cx="0" cy="0" r="1" gradientUnits="userSpaceOnUse" gradientTransform="translate(23.8989 27.9852) scale(4.65384 4.65385)">
<stop stop-color="#414141"/>
<stop offset="1" stop-color="#313131"/>
</radialGradient>
<radialGradient id="paint13_radial_196_4576" cx="0" cy="0" r="1" gradientUnits="userSpaceOnUse" gradientTransform="translate(22.6531 34.9595) scale(0.498375 0.498369)">
<stop stop-color="#414141"/>
<stop offset="1" stop-color="#313131"/>
</radialGradient>
<radialGradient id="paint14_radial_196_4576" cx="0" cy="0" r="1" gradientUnits="userSpaceOnUse" gradientTransform="translate(21.463 35.9563) scale(0.498369 0.498365)">
<stop stop-color="#414141"/>
<stop offset="1" stop-color="#313131"/>
</radialGradient>
<radialGradient id="paint15_radial_196_4576" cx="0" cy="0" r="1" gradientUnits="userSpaceOnUse" gradientTransform="translate(16.7653 28.7415) scale(5.05629 5.05629)">
<stop stop-color="#414141"/>
<stop offset="1" stop-color="#313131"/>
</radialGradient>
</defs>
</svg>
